<svg xmlns="http://www.w3.org/2000/svg" width="125.9" height="143.3" viewBox="0 0 33.3 37.9"><defs><clipPath id="e"><path d="M241 226c-.6 0-1.3.2-2 .6L197 251l45.3 82.4c.7 0 1.3-.3 1.8-.7l42.6-24.3c1.3-.8 2.2-2 2.4-3.5l-46.3-79h-1.4"/></clipPath><linearGradient id="f" x2="1" gradientTransform="translate(192.862 279.652) scale(97.417)" gradientUnits="userSpaceOnUse"><stop offset=".2" stop-color="#6BBF47"/><stop offset=".4" stop-color="#79B461"/><stop offset=".5" stop-color="#75AC64"/><stop offset=".7" stop-color="#659E5A"/><stop offset=".9" stop-color="#3E863D"/></linearGradient><clipPath id="c"><path d="M195.4 307c.4.6 1 1 1.5 1.4l36 21 6 3.3c1 .6 2 .8 3 .7l1-.2 44-81.2c-.3-.7-.7-1-1.2-1l-27.4-16-14.6-8.6-1.2-.5zm0 0"/></clipPath><linearGradient id="d" x1="-.5" x2=".6" gradientTransform="rotate(-36.46 550.846 -214.337) scale(132.798)" gradientUnits="userSpaceOnUse"><stop offset=".6" stop-color="#3E863D"/><stop offset=".7" stop-color="#619857"/><stop offset="1" stop-color="#76AC64"/></linearGradient><clipPath id="a"><path d="M239 226.6L197 251c-1.7.8-2.6 2.5-2.6 4.3V304c0 1.8 1 3.5 2.5 4.4l42 24.3c1.3 1 3.3 1 5 0l42-24.3c1.5-1 2.5-2.6 2.5-4.4v-48.7c0-1.8-1-3.5-2.6-4.4l-42-24.7c-1-.4-1.8-.7-2.6-.7-1 0-1.8.2-2.6.6"/></clipPath><linearGradient id="b" x1="-.3" x2="1.3" gradientTransform="rotate(116.114 53.1 202.97) scale(86.48)" gradientUnits="userSpaceOnUse"><stop offset=".3" stop-color="#3E863D"/><stop offset=".5" stop-color="#55934F"/><stop offset=".8" stop-color="#5AAD45"/></linearGradient></defs><g clip-path="url(#a)" transform="matrix(.353 0 0 .353 -68.564 -79.7)"><path fill="url(#b)" d="M331.4 246.8l-118.8-58.2-60.8 124.2L270.5 371zm0 0"/></g><g clip-path="url(#c)" transform="matrix(.353 0 0 .353 -68.564 -79.7)"><path fill="url(#d)" d="M144 264l84 113.5 110.8-82-84-113.4zm0 0"/></g><g clip-path="url(#e)" transform="matrix(.353 0 0 .353 -68.564 -79.7)"><path fill="url(#f)" d="M197 226v107.4h91.7V226zm0 0"/></g></svg>